<svg width="55" height="55" viewBox="0 0 55 55" fill="none" xmlns="http://www.w3.org/2000/svg">
<path d="M13.9466 54.8055C10.6757 54.6567 8.89886 54.1124 7.71703 53.6514C6.15107 53.0417 5.03462 52.316 3.85933 51.1423C2.68404 49.9686 1.95664 48.8522 1.35019 47.2862C0.889232 46.1044 0.344904 44.3276 0.196154 41.0567C0.0326924 37.521 0 36.4602 0 27.5025C0 18.5447 0.0359616 17.4855 0.19452 13.9466C0.34327 10.6757 0.890867 8.90213 1.34856 7.71703C1.95827 6.15107 2.68568 5.03462 3.8577 3.8577C5.03135 2.68404 6.1478 1.955 7.7154 1.34856C8.89723 0.887598 10.6741 0.34327 13.9449 0.19452C17.4822 0.0326924 18.5447 0 27.4992 0C36.4569 0 37.5161 0.0359616 41.0551 0.19452C44.3259 0.34327 46.0995 0.890867 47.2846 1.34856C48.8506 1.955 49.967 2.68404 51.1423 3.8577C52.3176 5.03135 53.0417 6.14943 53.6514 7.7154C54.1124 8.89723 54.6567 10.6741 54.8055 13.9449C54.9673 17.4839 55 18.5431 55 27.5008C55 36.4553 54.9673 37.5178 54.8055 41.0567C54.6567 44.3276 54.1091 46.1044 53.6514 47.2862C53.0417 48.8522 52.316 49.9686 51.1423 51.1423C49.9686 52.316 48.8506 53.0417 47.2846 53.6514C46.1028 54.1124 44.3259 54.6567 41.0551 54.8055C37.5194 54.9673 36.4569 55 27.4992 55C18.5447 55 17.4822 54.9689 13.9466 54.8055Z" fill="url(#paint0_radial_166_148)"/>
<path d="M13.9466 54.8055C10.6757 54.6567 8.89886 54.1124 7.71703 53.6514C6.15107 53.0417 5.03462 52.316 3.85933 51.1423C2.68404 49.9686 1.95664 48.8522 1.35019 47.2862C0.889232 46.1044 0.344904 44.3276 0.196154 41.0567C0.0326924 37.521 0 36.4602 0 27.5025C0 18.5447 0.0359616 17.4855 0.19452 13.9466C0.34327 10.6757 0.890867 8.90213 1.34856 7.71703C1.95827 6.15107 2.68568 5.03462 3.8577 3.8577C5.03135 2.68404 6.1478 1.955 7.7154 1.34856C8.89723 0.887598 10.6741 0.34327 13.9449 0.19452C17.4822 0.0326924 18.5447 0 27.4992 0C36.4569 0 37.5161 0.0359616 41.0551 0.19452C44.3259 0.34327 46.0995 0.890867 47.2846 1.34856C48.8506 1.955 49.967 2.68404 51.1423 3.8577C52.3176 5.03135 53.0417 6.14943 53.6514 7.7154C54.1124 8.89723 54.6567 10.6741 54.8055 13.9449C54.9673 17.4839 55 18.5431 55 27.5008C55 36.4553 54.9673 37.5178 54.8055 41.0567C54.6567 44.3276 54.1091 46.1044 53.6514 47.2862C53.0417 48.8522 52.316 49.9686 51.1423 51.1423C49.9686 52.316 48.8506 53.0417 47.2846 53.6514C46.1028 54.1124 44.3259 54.6567 41.0551 54.8055C37.5194 54.9673 36.4569 55 27.4992 55C18.5447 55 17.4822 54.9689 13.9466 54.8055Z" fill="url(#paint1_radial_166_148)"/>
<path d="M21.2593 27.3052C21.2593 23.9661 23.9655 21.2585 27.3046 21.2585C30.6436 21.2585 33.3512 23.9661 33.3512 27.3052C33.3512 30.6443 30.6436 33.3519 27.3046 33.3519C23.9655 33.3519 21.2593 30.6443 21.2593 27.3052ZM17.9906 27.3052C17.9906 32.4493 22.1605 36.6191 27.3046 36.6191C32.4486 36.6191 36.6185 32.4493 36.6185 27.3052C36.6185 22.1611 32.4486 17.9913 27.3046 17.9913C22.1605 17.9913 17.9908 22.1608 17.9908 27.3052M34.8107 17.622C34.8105 18.0525 34.938 18.4733 35.1771 18.8314C35.4161 19.1894 35.7559 19.4685 36.1536 19.6334C36.5512 19.7984 36.9889 19.8416 37.4111 19.7578C37.8334 19.674 38.2213 19.4668 38.5258 19.1626C38.8304 18.8583 39.0378 18.4705 39.122 18.0483C39.2061 17.6261 39.1632 17.1885 38.9986 16.7907C38.834 16.3929 38.5552 16.0528 38.1973 15.8135C37.8395 15.5742 37.4187 15.4464 36.9882 15.4462H36.9873C36.4103 15.4465 35.857 15.6758 35.4488 16.0837C35.0407 16.4917 34.8112 17.0449 34.8107 17.622ZM19.9766 42.0697C18.2082 41.9891 17.247 41.6946 16.6082 41.4457C15.7613 41.116 15.1571 40.7234 14.5218 40.0889C13.8865 39.4545 13.4933 38.8509 13.1651 38.004C12.9161 37.3656 12.6215 36.4041 12.5411 34.6356C12.4532 32.7237 12.4356 32.1493 12.4356 27.3055C12.4356 22.4616 12.4546 21.8889 12.5411 19.9753C12.6216 18.2069 12.9184 17.2473 13.1651 16.6069C13.4947 15.7601 13.8874 15.1559 14.5218 14.5206C15.1562 13.8853 15.7599 13.492 16.6082 13.1638C17.2467 12.9148 18.2082 12.6202 19.9766 12.5398C21.8885 12.4519 22.4629 12.4344 27.3046 12.4344C32.1462 12.4344 32.7212 12.4531 34.6347 12.5401C36.4031 12.6207 37.3627 12.9174 38.0031 13.1641C38.85 13.4923 39.4542 13.8864 40.0895 14.5209C40.7248 15.1553 41.1165 15.7604 41.4462 16.6072C41.6952 17.2457 41.9898 18.2072 42.0702 19.9756C42.1581 21.8892 42.1757 22.4619 42.1757 27.3058C42.1757 32.1496 42.1581 32.7224 42.0702 34.6359C41.9897 36.4044 41.6936 37.3656 41.4462 38.0043C41.1165 38.8512 40.7239 39.4554 40.0895 40.0892C39.4551 40.7231 38.85 41.1163 38.0031 41.446C37.3646 41.695 36.4031 41.9896 34.6347 42.07C32.7228 42.1579 32.1484 42.1755 27.3046 42.1755C22.4607 42.1755 21.888 42.1579 19.9766 42.07M19.8264 9.2765C17.8954 9.36444 16.576 9.67062 15.4237 10.119C14.231 10.582 13.2201 11.2033 12.2105 12.2112C11.201 13.2191 10.5814 14.2302 10.1184 15.4243C9.66998 16.5773 9.3638 17.8961 9.27586 19.827C9.18648 21.761 9.16602 22.3793 9.16602 27.3052C9.16602 32.231 9.18648 32.8494 9.27586 34.7834C9.3638 36.7145 9.66998 38.0331 10.1184 39.1861C10.5814 40.3787 11.2012 41.3917 12.2105 42.3992C13.2199 43.4067 14.2296 44.027 15.4237 44.4914C16.5781 44.9398 17.8954 45.246 19.8264 45.3339C21.7614 45.4218 22.3787 45.4437 27.3046 45.4437C32.2304 45.4437 32.8487 45.4233 34.7827 45.3339C36.7138 45.246 38.0324 44.9398 39.1854 44.4914C40.3781 44.027 41.3891 43.4071 42.3986 42.3992C43.4081 41.3913 44.0264 40.3787 44.4908 39.1861C44.9391 38.0331 45.2468 36.7143 45.3333 34.7834C45.4212 32.8479 45.4416 32.231 45.4416 27.3052C45.4416 22.3793 45.4212 21.761 45.3333 19.827C45.2453 17.8959 44.9391 16.5766 44.4908 15.4243C44.0264 14.2317 43.4065 13.2207 42.3986 12.2112C41.3907 11.2017 40.3781 10.582 39.1869 10.119C38.0324 9.67062 36.7137 9.36299 34.7842 9.2765C32.8499 9.18813 32.2319 9.16666 27.3067 9.16666C22.3816 9.16666 21.7621 9.18712 19.8271 9.2765" fill="white"/>
<defs>
<radialGradient id="paint0_radial_166_148" cx="0" cy="0" r="1" gradientUnits="userSpaceOnUse" gradientTransform="translate(3.55954 53.7951) scale(69.8296)">
<stop offset="0.09" stop-color="#FA8F21"/>
<stop offset="0.78" stop-color="#D82D7E"/>
</radialGradient>
<radialGradient id="paint1_radial_166_148" cx="0" cy="0" r="1" gradientUnits="userSpaceOnUse" gradientTransform="translate(38.0966 52.0291) scale(61.4507)">
<stop offset="0.64" stop-color="#8C3AAA" stop-opacity="0"/>
<stop offset="1" stop-color="#8C3AAA"/>
</radialGradient>
</defs>
</svg>
