<svg width="65" height="65" viewBox="0 0 65 65" fill="none" xmlns="http://www.w3.org/2000/svg">
<path fill-rule="evenodd" clip-rule="evenodd" d="M5.51613 30.586C22.3118 23.2684 33.5116 18.4441 39.1154 16.1133C55.1155 9.45835 58.4401 8.30231 60.6071 8.26414C61.0837 8.25574 62.1494 8.37386 62.8397 8.93398C63.4225 9.40693 63.5829 10.0458 63.6596 10.4942C63.7364 10.9427 63.8319 11.9641 63.756 12.7623C62.8889 21.8725 59.1372 43.9804 57.2286 54.1839C56.4209 58.5014 54.8307 59.949 53.2912 60.0907C49.9454 60.3986 47.4048 57.8796 44.1643 55.7554C39.0935 52.4314 36.2288 50.3622 31.3067 47.1186C25.6184 43.3701 29.3059 41.3099 32.5477 37.9429C33.396 37.0617 48.1375 23.6532 48.4229 22.4368C48.4585 22.2847 48.4917 21.7176 48.1548 21.4182C47.8179 21.1188 47.3207 21.2212 46.9619 21.3026C46.4533 21.418 38.3527 26.7723 22.6599 37.3653C20.3606 38.9442 18.2779 39.7135 16.4119 39.6732C14.3548 39.6287 10.3977 38.5101 7.45602 37.5538C3.84793 36.381 0.980295 35.7609 1.23 33.769C1.36006 32.7316 2.78877 31.6705 5.51613 30.586Z" fill="url(#paint0_linear_166_139)"/>
<defs>
<linearGradient id="paint0_linear_166_139" x1="32.4993" y1="8.26373" x2="32.4993" y2="59.7318" gradientUnits="userSpaceOnUse">
<stop stop-color="#2AABEE"/>
<stop offset="1" stop-color="#229ED9"/>
</linearGradient>
</defs>
</svg>
