<svg width="215" height="114" viewBox="0 0 215 114" fill="none" xmlns="http://www.w3.org/2000/svg">
<path d="M90.3072 80.6928C85.2434 87.8115 78.032 93.1205 69.7306 95.8414C61.4291 98.5622 52.4742 98.5518 44.1791 95.8116C35.884 93.0714 28.685 87.7456 23.6378 80.6152C18.5905 73.4847 15.9606 64.9248 16.1336 56.1905C16.3066 47.4562 19.2735 39.0071 24.5991 32.0821C29.9248 25.1571 37.329 20.1206 45.7262 17.7111C54.1233 15.3016 63.0716 15.6458 71.2588 18.6933C79.446 21.7408 86.4415 27.3312 91.2194 34.6448L78.0897 43.2223C75.1451 38.7148 70.8337 35.2694 65.7878 33.3912C60.742 31.513 55.2271 31.3009 50.0519 32.7859C44.8766 34.2709 40.3133 37.375 37.0311 41.6429C33.7488 45.9108 31.9203 51.1181 31.8137 56.5011C31.7071 61.8841 33.3279 67.1597 36.4386 71.5543C39.5492 75.9488 43.986 79.2312 49.0984 80.92C54.2107 82.6088 59.7297 82.6152 64.846 80.9383C69.9623 79.2614 74.4067 75.9894 77.5276 71.6021L90.3072 80.6928Z" fill="url(#paint0_linear_330_89)"/>
<mask id="mask0_330_89" style="mask-type:alpha" maskUnits="userSpaceOnUse" x="16" y="20" width="18" height="17">
<circle cx="25.1702" cy="28.5236" r="8.38235" transform="rotate(-0.16073 25.1702 28.5236)" fill="#06314D"/>
</mask>
<g mask="url(#mask0_330_89)">
<circle cx="25.0083" cy="28.3628" r="16.2811" transform="rotate(-0.16073 25.0083 28.3628)" fill="#06314D"/>
</g>
<path d="M88.372 67.156C86.968 67.156 85.7113 66.8527 84.602 66.246C83.51 65.6393 82.652 64.8073 82.028 63.75C81.404 62.6927 81.092 61.4793 81.092 60.11C81.092 58.7407 81.404 57.5273 82.028 56.47C82.652 55.4127 83.51 54.5893 84.602 54C85.7113 53.3933 86.968 53.09 88.372 53.09C89.62 53.09 90.7293 53.3413 91.7 53.844C92.688 54.3293 93.4507 55.0573 93.988 56.028L92.09 57.25C91.6393 56.574 91.0847 56.08 90.426 55.768C89.7847 55.4387 89.0913 55.274 88.346 55.274C87.4447 55.274 86.6387 55.4733 85.928 55.872C85.2173 56.2707 84.654 56.834 84.238 57.562C83.822 58.2727 83.614 59.122 83.614 60.11C83.614 61.098 83.822 61.956 84.238 62.684C84.654 63.412 85.2173 63.9753 85.928 64.374C86.6387 64.7727 87.4447 64.972 88.346 64.972C89.0913 64.972 89.7847 64.816 90.426 64.504C91.0847 64.1747 91.6393 63.672 92.09 62.996L93.988 64.192C93.4507 65.1453 92.688 65.882 91.7 66.402C90.7293 66.9047 89.62 67.156 88.372 67.156ZM102.918 67.156C101.532 67.156 100.301 66.8527 99.2264 66.246C98.1517 65.6393 97.3024 64.8073 96.6784 63.75C96.0544 62.6753 95.7424 61.462 95.7424 60.11C95.7424 58.7407 96.0544 57.5273 96.6784 56.47C97.3024 55.4127 98.1517 54.5893 99.2264 54C100.301 53.3933 101.532 53.09 102.918 53.09C104.288 53.09 105.51 53.3933 106.584 54C107.676 54.5893 108.526 55.4127 109.132 56.47C109.756 57.51 110.068 58.7233 110.068 60.11C110.068 61.4793 109.756 62.6927 109.132 63.75C108.526 64.8073 107.676 65.6393 106.584 66.246C105.51 66.8527 104.288 67.156 102.918 67.156ZM102.918 64.972C103.802 64.972 104.591 64.7727 105.284 64.374C105.995 63.9753 106.55 63.412 106.948 62.684C107.347 61.9387 107.546 61.0807 107.546 60.11C107.546 59.122 107.347 58.2727 106.948 57.562C106.55 56.834 105.995 56.2707 105.284 55.872C104.591 55.4733 103.802 55.274 102.918 55.274C102.034 55.274 101.246 55.4733 100.552 55.872C99.8591 56.2707 99.3044 56.834 98.8884 57.562C98.4724 58.2727 98.2644 59.122 98.2644 60.11C98.2644 61.0807 98.4724 61.9387 98.8884 62.684C99.3044 63.412 99.8591 63.9753 100.552 64.374C101.246 64.7727 102.034 64.972 102.918 64.972ZM119.318 67.156C118.14 67.156 117.1 66.9393 116.198 66.506C115.314 66.0727 114.621 65.414 114.118 64.53C113.633 63.6287 113.39 62.502 113.39 61.15V53.22H115.886V60.864C115.886 62.216 116.207 63.23 116.848 63.906C117.507 64.582 118.426 64.92 119.604 64.92C120.471 64.92 121.225 64.7467 121.866 64.4C122.508 64.036 123.002 63.516 123.348 62.84C123.695 62.1467 123.868 61.3147 123.868 60.344V53.22H126.364V67H123.998V63.282L124.388 64.27C123.938 65.1887 123.262 65.8993 122.36 66.402C121.459 66.9047 120.445 67.156 119.318 67.156ZM131.116 67V53.22H133.508V56.964L133.274 56.028C133.655 55.0747 134.297 54.3467 135.198 53.844C136.099 53.3413 137.209 53.09 138.526 53.09V55.508C138.422 55.4907 138.318 55.482 138.214 55.482C138.127 55.482 138.041 55.482 137.954 55.482C136.619 55.482 135.562 55.8807 134.782 56.678C134.002 57.4753 133.612 58.628 133.612 60.136V67H131.116ZM145.707 67.156C144.563 67.156 143.471 67 142.431 66.688C141.408 66.376 140.602 65.9947 140.013 65.544L141.053 63.568C141.642 63.9667 142.37 64.3047 143.237 64.582C144.103 64.8593 144.987 64.998 145.889 64.998C147.05 64.998 147.882 64.8333 148.385 64.504C148.905 64.1747 149.165 63.7153 149.165 63.126C149.165 62.6927 149.009 62.3547 148.697 62.112C148.385 61.8693 147.969 61.6873 147.449 61.566C146.946 61.4447 146.383 61.3407 145.759 61.254C145.135 61.15 144.511 61.0287 143.887 60.89C143.263 60.734 142.691 60.526 142.171 60.266C141.651 59.9887 141.235 59.616 140.923 59.148C140.611 58.6627 140.455 58.0213 140.455 57.224C140.455 56.392 140.689 55.664 141.157 55.04C141.625 54.416 142.283 53.9393 143.133 53.61C143.999 53.2633 145.022 53.09 146.201 53.09C147.102 53.09 148.012 53.2027 148.931 53.428C149.867 53.636 150.629 53.9393 151.219 54.338L150.153 56.314C149.529 55.898 148.879 55.612 148.203 55.456C147.527 55.3 146.851 55.222 146.175 55.222C145.083 55.222 144.268 55.404 143.731 55.768C143.193 56.1147 142.925 56.5653 142.925 57.12C142.925 57.588 143.081 57.952 143.393 58.212C143.722 58.4547 144.138 58.6453 144.641 58.784C145.161 58.9227 145.733 59.044 146.357 59.148C146.981 59.2347 147.605 59.356 148.229 59.512C148.853 59.6507 149.416 59.85 149.919 60.11C150.439 60.37 150.855 60.734 151.167 61.202C151.496 61.67 151.661 62.294 151.661 63.074C151.661 63.906 151.418 64.6253 150.933 65.232C150.447 65.8387 149.763 66.3153 148.879 66.662C147.995 66.9913 146.937 67.156 145.707 67.156ZM160.916 67.156C159.443 67.156 158.143 66.8527 157.016 66.246C155.907 65.6393 155.04 64.8073 154.416 63.75C153.809 62.6927 153.506 61.4793 153.506 60.11C153.506 58.7407 153.801 57.5273 154.39 56.47C154.997 55.4127 155.82 54.5893 156.86 54C157.917 53.3933 159.105 53.09 160.422 53.09C161.757 53.09 162.935 53.3847 163.958 53.974C164.981 54.5633 165.778 55.3953 166.35 56.47C166.939 57.5273 167.234 58.7667 167.234 60.188C167.234 60.292 167.225 60.4133 167.208 60.552C167.208 60.6907 167.199 60.8207 167.182 60.942H155.456V59.148H165.882L164.868 59.772C164.885 58.888 164.703 58.0993 164.322 57.406C163.941 56.7127 163.412 56.1753 162.736 55.794C162.077 55.3953 161.306 55.196 160.422 55.196C159.555 55.196 158.784 55.3953 158.108 55.794C157.432 56.1753 156.903 56.7213 156.522 57.432C156.141 58.1253 155.95 58.9227 155.95 59.824V60.24C155.95 61.1587 156.158 61.982 156.574 62.71C157.007 63.4207 157.605 63.9753 158.368 64.374C159.131 64.7727 160.006 64.972 160.994 64.972C161.809 64.972 162.545 64.8333 163.204 64.556C163.88 64.2787 164.469 63.8627 164.972 63.308L166.35 64.92C165.726 65.648 164.946 66.2027 164.01 66.584C163.091 66.9653 162.06 67.156 160.916 67.156ZM175.432 67.156C174.045 67.156 172.971 66.7833 172.208 66.038C171.445 65.2927 171.064 64.2267 171.064 62.84V50.204H173.56V62.736C173.56 63.4813 173.742 64.0533 174.106 64.452C174.487 64.8507 175.025 65.05 175.718 65.05C176.498 65.05 177.148 64.8333 177.668 64.4L178.448 66.194C178.067 66.5233 177.607 66.766 177.07 66.922C176.55 67.078 176.004 67.156 175.432 67.156ZM168.724 55.274V53.22H177.512V55.274H168.724ZM186.911 67.156C185.524 67.156 184.293 66.8527 183.219 66.246C182.144 65.6393 181.295 64.8073 180.671 63.75C180.047 62.6753 179.735 61.462 179.735 60.11C179.735 58.7407 180.047 57.5273 180.671 56.47C181.295 55.4127 182.144 54.5893 183.219 54C184.293 53.3933 185.524 53.09 186.911 53.09C188.28 53.09 189.502 53.3933 190.577 54C191.669 54.5893 192.518 55.4127 193.125 56.47C193.749 57.51 194.061 58.7233 194.061 60.11C194.061 61.4793 193.749 62.6927 193.125 63.75C192.518 64.8073 191.669 65.6393 190.577 66.246C189.502 66.8527 188.28 67.156 186.911 67.156ZM186.911 64.972C187.795 64.972 188.583 64.7727 189.277 64.374C189.987 63.9753 190.542 63.412 190.941 62.684C191.339 61.9387 191.539 61.0807 191.539 60.11C191.539 59.122 191.339 58.2727 190.941 57.562C190.542 56.834 189.987 56.2707 189.277 55.872C188.583 55.4733 187.795 55.274 186.911 55.274C186.027 55.274 185.238 55.4733 184.545 55.872C183.851 56.2707 183.297 56.834 182.881 57.562C182.465 58.2727 182.257 59.122 182.257 60.11C182.257 61.0807 182.465 61.9387 182.881 62.684C183.297 63.412 183.851 63.9753 184.545 64.374C185.238 64.7727 186.027 64.972 186.911 64.972ZM204.818 67.156C203.674 67.156 202.626 66.896 201.672 66.376C200.736 65.8387 199.982 65.05 199.41 64.01C198.856 62.97 198.578 61.67 198.578 60.11C198.578 58.55 198.847 57.25 199.384 56.21C199.939 55.17 200.684 54.39 201.62 53.87C202.574 53.35 203.64 53.09 204.818 53.09C206.17 53.09 207.366 53.3847 208.406 53.974C209.446 54.5633 210.27 55.3867 210.876 56.444C211.483 57.484 211.786 58.706 211.786 60.11C211.786 61.514 211.483 62.7447 210.876 63.802C210.27 64.8593 209.446 65.6827 208.406 66.272C207.366 66.8613 206.17 67.156 204.818 67.156ZM197.512 72.044V53.22H199.904V56.938L199.748 60.136L200.008 63.334V72.044H197.512ZM204.61 64.972C205.494 64.972 206.283 64.7727 206.976 64.374C207.687 63.9753 208.242 63.412 208.64 62.684C209.056 61.9387 209.264 61.0807 209.264 60.11C209.264 59.122 209.056 58.2727 208.64 57.562C208.242 56.834 207.687 56.2707 206.976 55.872C206.283 55.4733 205.494 55.274 204.61 55.274C203.744 55.274 202.955 55.4733 202.244 55.872C201.551 56.2707 200.996 56.834 200.58 57.562C200.182 58.2727 199.982 59.122 199.982 60.11C199.982 61.0807 200.182 61.9387 200.58 62.684C200.996 63.412 201.551 63.9753 202.244 64.374C202.955 64.7727 203.744 64.972 204.61 64.972Z" fill="#67AAF9"/>
<defs>
<linearGradient id="paint0_linear_330_89" x1="49.4537" y1="16.1466" x2="33.3072" y2="90.3072" gradientUnits="userSpaceOnUse">
<stop stop-color="#E84142"/>
<stop offset="1" stop-color="#67AAF9"/>
</linearGradient>
</defs>
</svg>
