<svg width="226" height="198" viewBox="0 0 226 198" fill="none" xmlns="http://www.w3.org/2000/svg">
<path d="M162.052 118.961C154.587 129.456 143.956 137.282 131.717 141.294C119.479 145.305 106.277 145.29 94.0481 141.25C81.819 137.21 71.2059 129.359 63.7651 118.847C56.3242 108.334 52.4471 95.715 52.7022 82.8385C52.9572 69.962 57.3311 57.506 65.1824 47.2969C73.0337 37.0878 83.9494 29.6627 96.3288 26.1105C108.708 22.5582 121.9 23.0657 133.97 27.5584C146.04 32.0512 156.353 40.2929 163.397 51.0749L144.041 63.7203C139.699 57.0752 133.343 51.9957 125.905 49.2268C118.466 46.4579 110.335 46.1451 102.706 48.3344C95.0764 50.5237 88.3489 55.0998 83.5101 61.3918C78.6713 67.6838 75.9756 75.3605 75.8184 83.2964C75.6612 91.2323 78.0507 99.0098 82.6366 105.488C87.2225 111.967 93.7634 116.806 101.3 119.296C108.837 121.786 116.973 121.795 124.516 119.323C132.059 116.851 138.611 112.027 143.212 105.559L162.052 118.961Z" fill="url(#paint0_linear_442_793)"/>
<mask id="mask0_442_793" style="mask-type:alpha" maskUnits="userSpaceOnUse" x="53" y="29" width="26" height="26">
<circle cx="66.0247" cy="42.0505" r="12.3576" transform="rotate(-0.16073 66.0247 42.0505)" fill="#06314D"/>
</mask>
<g mask="url(#mask0_442_793)">
<circle cx="65.7858" cy="41.8133" r="24.0023" transform="rotate(-0.16073 65.7858 41.8133)" fill="#06314D"/>
</g>
<path d="M13.9671 189.388C11.6248 189.388 9.52829 188.882 7.67758 187.87C5.85578 186.857 4.42437 185.469 3.38334 183.705C2.34231 181.941 1.8218 179.917 1.8218 177.633C1.8218 175.348 2.34231 173.324 3.38334 171.56C4.42437 169.796 5.85578 168.423 7.67758 167.439C9.52829 166.427 11.6248 165.921 13.9671 165.921C16.0492 165.921 17.8999 166.341 19.5193 167.179C21.1676 167.989 22.4399 169.203 23.3364 170.823L20.1699 172.861C19.4181 171.734 18.4927 170.909 17.3938 170.389C16.3239 169.84 15.1672 169.565 13.9237 169.565C12.42 169.565 11.0754 169.897 9.88976 170.562C8.70415 171.228 7.76433 172.167 7.07031 173.382C6.37629 174.568 6.02928 175.984 6.02928 177.633C6.02928 179.281 6.37629 180.712 7.07031 181.927C7.76433 183.142 8.70415 184.081 9.88976 184.746C11.0754 185.412 12.42 185.744 13.9237 185.744C15.1672 185.744 16.3239 185.484 17.3938 184.963C18.4927 184.414 19.4181 183.575 20.1699 182.448L23.3364 184.443C22.4399 186.033 21.1676 187.262 19.5193 188.13C17.8999 188.968 16.0492 189.388 13.9671 189.388ZM38.2351 189.388C35.9217 189.388 33.8685 188.882 32.0756 187.87C30.2828 186.857 28.8658 185.469 27.8248 183.705C26.7838 181.913 26.2632 179.888 26.2632 177.633C26.2632 175.348 26.7838 173.324 27.8248 171.56C28.8658 169.796 30.2828 168.423 32.0756 167.439C33.8685 166.427 35.9217 165.921 38.2351 165.921C40.5195 165.921 42.5582 166.427 44.3511 167.439C46.1729 168.423 47.5898 169.796 48.602 171.56C49.643 173.295 50.1635 175.319 50.1635 177.633C50.1635 179.917 49.643 181.941 48.602 183.705C47.5898 185.469 46.1729 186.857 44.3511 187.87C42.5582 188.882 40.5195 189.388 38.2351 189.388ZM38.2351 185.744C39.7098 185.744 41.0256 185.412 42.1823 184.746C43.3679 184.081 44.2933 183.142 44.9584 181.927C45.6235 180.684 45.956 179.252 45.956 177.633C45.956 175.984 45.6235 174.568 44.9584 173.382C44.2933 172.167 43.3679 171.228 42.1823 170.562C41.0256 169.897 39.7098 169.565 38.2351 169.565C36.7603 169.565 35.4445 169.897 34.2878 170.562C33.1311 171.228 32.2058 172.167 31.5118 173.382C30.8177 174.568 30.4707 175.984 30.4707 177.633C30.4707 179.252 30.8177 180.684 31.5118 181.927C32.2058 183.142 33.1311 184.081 34.2878 184.746C35.4445 185.412 36.7603 185.744 38.2351 185.744ZM65.5952 189.388C63.6289 189.388 61.8938 189.026 60.3901 188.303C58.9153 187.58 57.7586 186.481 56.92 185.007C56.1103 183.503 55.7055 181.623 55.7055 179.368V166.138H59.8696V178.891C59.8696 181.146 60.4046 182.838 61.4745 183.966C62.5734 185.093 64.106 185.657 66.0724 185.657C67.5182 185.657 68.7762 185.368 69.8461 184.79C70.916 184.183 71.7402 183.315 72.3185 182.187C72.8969 181.031 73.1861 179.643 73.1861 178.023V166.138H77.3502V189.127H73.4029V182.925L74.0536 184.573C73.3017 186.106 72.174 187.291 70.6702 188.13C69.1665 188.968 67.4749 189.388 65.5952 189.388ZM85.2775 189.127V166.138H89.2681V172.384L88.8777 170.823C89.5139 169.232 90.5838 168.018 92.0876 167.179C93.5913 166.341 95.442 165.921 97.6397 165.921V169.955C97.4662 169.926 97.2927 169.912 97.1192 169.912C96.9746 169.912 96.83 169.912 96.6854 169.912C94.4588 169.912 92.6948 170.577 91.3935 171.907C90.0923 173.237 89.4416 175.16 89.4416 177.676V189.127H85.2775ZM109.619 189.388C107.711 189.388 105.889 189.127 104.154 188.607C102.448 188.086 101.103 187.45 100.12 186.698L101.855 183.402C102.838 184.067 104.053 184.631 105.499 185.093C106.944 185.556 108.419 185.787 109.923 185.787C111.86 185.787 113.248 185.513 114.087 184.963C114.955 184.414 115.388 183.648 115.388 182.664C115.388 181.941 115.128 181.378 114.608 180.973C114.087 180.568 113.393 180.264 112.526 180.062C111.687 179.859 110.747 179.686 109.706 179.541C108.665 179.368 107.624 179.165 106.583 178.934C105.542 178.674 104.588 178.327 103.72 177.893C102.853 177.43 102.159 176.809 101.638 176.028C101.118 175.218 100.857 174.148 100.857 172.818C100.857 171.43 101.248 170.215 102.028 169.174C102.809 168.133 103.908 167.338 105.325 166.789C106.771 166.21 108.477 165.921 110.443 165.921C111.947 165.921 113.465 166.109 114.998 166.485C116.559 166.832 117.832 167.338 118.815 168.003L117.037 171.3C115.996 170.606 114.911 170.129 113.783 169.868C112.656 169.608 111.528 169.478 110.4 169.478C108.578 169.478 107.219 169.782 106.323 170.389C105.426 170.967 104.978 171.719 104.978 172.645C104.978 173.425 105.238 174.033 105.759 174.466C106.308 174.871 107.002 175.189 107.841 175.421C108.708 175.652 109.663 175.854 110.704 176.028C111.745 176.172 112.786 176.375 113.827 176.635C114.868 176.866 115.808 177.199 116.646 177.633C117.514 178.067 118.208 178.674 118.728 179.455C119.278 180.235 119.552 181.276 119.552 182.578C119.552 183.966 119.148 185.166 118.338 186.178C117.528 187.19 116.386 187.985 114.911 188.564C113.436 189.113 111.672 189.388 109.619 189.388ZM134.993 189.388C132.535 189.388 130.367 188.882 128.487 187.87C126.636 186.857 125.19 185.469 124.149 183.705C123.137 181.941 122.631 179.917 122.631 177.633C122.631 175.348 123.123 173.324 124.106 171.56C125.118 169.796 126.492 168.423 128.227 167.439C129.991 166.427 131.971 165.921 134.169 165.921C136.396 165.921 138.362 166.413 140.068 167.396C141.774 168.379 143.105 169.767 144.059 171.56C145.042 173.324 145.534 175.392 145.534 177.763C145.534 177.936 145.519 178.139 145.49 178.37C145.49 178.601 145.476 178.818 145.447 179.021H125.884V176.028H143.278L141.587 177.069C141.615 175.594 141.312 174.278 140.676 173.122C140.039 171.965 139.157 171.069 138.03 170.432C136.931 169.767 135.644 169.435 134.169 169.435C132.723 169.435 131.436 169.767 130.309 170.432C129.181 171.069 128.299 171.979 127.663 173.165C127.027 174.322 126.708 175.652 126.708 177.156V177.85C126.708 179.382 127.056 180.756 127.75 181.97C128.472 183.156 129.47 184.081 130.742 184.746C132.015 185.412 133.475 185.744 135.123 185.744C136.483 185.744 137.712 185.513 138.81 185.05C139.938 184.587 140.921 183.893 141.76 182.968L144.059 185.657C143.018 186.872 141.717 187.797 140.155 188.433C138.622 189.07 136.902 189.388 134.993 189.388ZM159.21 189.388C156.897 189.388 155.104 188.766 153.832 187.523C152.559 186.279 151.923 184.501 151.923 182.187V161.106H156.087V182.014C156.087 183.257 156.391 184.211 156.998 184.877C157.634 185.542 158.531 185.874 159.688 185.874C160.989 185.874 162.073 185.513 162.941 184.79L164.242 187.783C163.606 188.332 162.84 188.737 161.943 188.997C161.076 189.258 160.165 189.388 159.21 189.388ZM148.019 169.565V166.138H162.681V169.565H148.019ZM178.36 189.388C176.047 189.388 173.994 188.882 172.201 187.87C170.408 186.857 168.991 185.469 167.95 183.705C166.909 181.913 166.389 179.888 166.389 177.633C166.389 175.348 166.909 173.324 167.95 171.56C168.991 169.796 170.408 168.423 172.201 167.439C173.994 166.427 176.047 165.921 178.36 165.921C180.645 165.921 182.683 166.427 184.476 167.439C186.298 168.423 187.715 169.796 188.727 171.56C189.768 173.295 190.289 175.319 190.289 177.633C190.289 179.917 189.768 181.941 188.727 183.705C187.715 185.469 186.298 186.857 184.476 187.87C182.683 188.882 180.645 189.388 178.36 189.388ZM178.36 185.744C179.835 185.744 181.151 185.412 182.308 184.746C183.493 184.081 184.419 183.142 185.084 181.927C185.749 180.684 186.081 179.252 186.081 177.633C186.081 175.984 185.749 174.568 185.084 173.382C184.419 172.167 183.493 171.228 182.308 170.562C181.151 169.897 179.835 169.565 178.36 169.565C176.886 169.565 175.57 169.897 174.413 170.562C173.256 171.228 172.331 172.167 171.637 173.382C170.943 174.568 170.596 175.984 170.596 177.633C170.596 179.252 170.943 180.684 171.637 181.927C172.331 183.142 173.256 184.081 174.413 184.746C175.57 185.412 176.886 185.744 178.36 185.744ZM208.236 189.388C206.328 189.388 204.578 188.954 202.988 188.086C201.426 187.19 200.168 185.874 199.214 184.139C198.289 182.404 197.826 180.235 197.826 177.633C197.826 175.03 198.274 172.861 199.171 171.126C200.096 169.391 201.34 168.09 202.901 167.222C204.492 166.355 206.27 165.921 208.236 165.921C210.492 165.921 212.487 166.413 214.222 167.396C215.957 168.379 217.331 169.753 218.343 171.517C219.355 173.252 219.861 175.29 219.861 177.633C219.861 179.975 219.355 182.028 218.343 183.792C217.331 185.556 215.957 186.93 214.222 187.913C212.487 188.896 210.492 189.388 208.236 189.388ZM196.048 197.542V166.138H200.038V172.341L199.778 177.676L200.212 183.011V197.542H196.048ZM207.889 185.744C209.364 185.744 210.68 185.412 211.837 184.746C213.022 184.081 213.948 183.142 214.613 181.927C215.307 180.684 215.654 179.252 215.654 177.633C215.654 175.984 215.307 174.568 214.613 173.382C213.948 172.167 213.022 171.228 211.837 170.562C210.68 169.897 209.364 169.565 207.889 169.565C206.443 169.565 205.128 169.897 203.942 170.562C202.785 171.228 201.86 172.167 201.166 173.382C200.501 174.568 200.168 175.984 200.168 177.633C200.168 179.252 200.501 180.684 201.166 181.927C201.86 183.142 202.785 184.081 203.942 184.746C205.128 185.412 206.443 185.744 207.889 185.744Z" fill="#67AAF9"/>
<defs>
<linearGradient id="paint0_linear_442_793" x1="101.824" y1="23.804" x2="78.0202" y2="133.135" gradientUnits="userSpaceOnUse">
<stop stop-color="#E84142"/>
<stop offset="1" stop-color="#67AAF9"/>
</linearGradient>
</defs>
</svg>
