<svg width="29" height="29" viewBox="0 0 29 29" fill="none" xmlns="http://www.w3.org/2000/svg">
<path d="M28.495 26.1411L19.7543 17.399C21.0986 15.6339 21.8551 13.3645 21.8551 10.9264C21.8551 4.87455 16.9804 0 10.9284 0C4.87633 0 0 4.87617 0 10.928C0 16.9798 4.87472 21.8544 10.9268 21.8544C13.3649 21.8544 15.5493 21.0979 17.3996 19.7536L26.142 28.4957C26.4777 28.8314 26.8985 29 27.3193 29C27.7401 29 28.1593 28.8314 28.4966 28.4957C29.1681 27.8227 29.1681 26.8141 28.4951 26.1412L28.495 26.1411ZM10.9284 18.4928C6.72503 18.4928 3.36332 15.1312 3.36332 10.928C3.36332 6.7248 6.72503 3.36321 10.9284 3.36321C15.1317 3.36321 18.4934 6.7248 18.4934 10.928C18.4934 15.1296 15.1301 18.4928 10.9284 18.4928Z" fill="#0E2944" fill-opacity="0.59"/>
</svg>
