<svg width="33" height="33" viewBox="0 0 33 33" fill="none" xmlns="http://www.w3.org/2000/svg">
<path d="M31.491 28.925L21.9589 19.3911C23.4249 17.4661 24.2499 14.9911 24.2499 12.3322C24.2499 5.73216 18.9339 0.416077 12.3339 0.416077C5.73386 0.416077 0.416016 5.73392 0.416016 12.3339C0.416016 18.9339 5.7321 24.25 12.3321 24.25C14.991 24.25 17.3732 23.425 19.391 21.9589L28.9249 31.4928C29.291 31.8589 29.7499 32.0428 30.2089 32.0428C30.6678 32.0428 31.1249 31.8589 31.4928 31.4928C32.225 30.7589 32.225 29.6589 31.4911 28.925L31.491 28.925ZM12.3339 20.5839C7.74994 20.5839 4.08386 16.9178 4.08386 12.3339C4.08386 7.75 7.74994 4.08392 12.3339 4.08392C16.9178 4.08392 20.5839 7.75 20.5839 12.3339C20.5839 16.9161 16.9161 20.5839 12.3339 20.5839Z" fill="white"/>
</svg>
