<svg width="823" height="95" viewBox="0 0 823 95" fill="none" xmlns="http://www.w3.org/2000/svg">
<path d="M2.97147 86V69.2H10.1955C12.0195 69.2 13.4515 69.568 14.4915 70.304C15.5315 71.04 16.0515 72.112 16.0515 73.52C16.0515 74.896 15.5555 75.952 14.5635 76.688C13.5715 77.408 12.2675 77.768 10.6515 77.768L11.0835 77.048C12.9555 77.048 14.3875 77.424 15.3795 78.176C16.3875 78.912 16.8915 79.992 16.8915 81.416C16.8915 82.856 16.3635 83.984 15.3075 84.8C14.2675 85.6 12.7155 86 10.6515 86H2.97147ZM5.34747 84.104H10.6035C11.8835 84.104 12.8435 83.872 13.4835 83.408C14.1395 82.928 14.4675 82.2 14.4675 81.224C14.4675 80.248 14.1395 79.536 13.4835 79.088C12.8435 78.64 11.8835 78.416 10.6035 78.416H5.34747V84.104ZM5.34747 76.592H10.0275C11.1955 76.592 12.0835 76.36 12.6915 75.896C13.3155 75.432 13.6275 74.752 13.6275 73.856C13.6275 72.944 13.3155 72.256 12.6915 71.792C12.0835 71.328 11.1955 71.096 10.0275 71.096H5.34747V76.592ZM33.0932 86V73.28H35.3972V86H33.0932ZM26.2532 77.6C27.8692 77.616 29.0932 77.984 29.9252 78.704C30.7732 79.424 31.1972 80.44 31.1972 81.752C31.1972 83.128 30.7332 84.192 29.8052 84.944C28.8932 85.68 27.5812 86.04 25.8692 86.024L20.5172 86V73.28H22.8212V77.576L26.2532 77.6ZM25.7012 84.272C26.7252 84.288 27.5092 84.08 28.0532 83.648C28.5972 83.216 28.8692 82.576 28.8692 81.728C28.8692 80.896 28.5972 80.288 28.0532 79.904C27.5252 79.52 26.7412 79.32 25.7012 79.304L22.8212 79.256V84.248L25.7012 84.272Z" fill="#0E2944"/>
<path d="M261.882 86V69.2H263.85L271.386 81.896H270.33L277.77 69.2H279.738L279.762 86H277.458L277.434 72.824H277.986L271.362 83.96H270.258L263.586 72.824H264.186V86H261.882ZM297.183 86V73.28H299.487V86H297.183ZM290.343 77.6C291.959 77.616 293.183 77.984 294.015 78.704C294.863 79.424 295.287 80.44 295.287 81.752C295.287 83.128 294.823 84.192 293.895 84.944C292.983 85.68 291.671 86.04 289.959 86.024L284.607 86V73.28H286.911V77.576L290.343 77.6ZM289.791 84.272C290.815 84.288 291.599 84.08 292.143 83.648C292.687 83.216 292.959 82.576 292.959 81.728C292.959 80.896 292.687 80.288 292.143 79.904C291.615 79.52 290.831 79.32 289.791 79.304L286.911 79.256V84.248L289.791 84.272Z" fill="#0E2944"/>
<path d="M523.971 86V69.2H531.195C533.019 69.2 534.451 69.568 535.491 70.304C536.531 71.04 537.051 72.112 537.051 73.52C537.051 74.896 536.555 75.952 535.563 76.688C534.571 77.408 533.267 77.768 531.651 77.768L532.083 77.048C533.955 77.048 535.387 77.424 536.379 78.176C537.387 78.912 537.891 79.992 537.891 81.416C537.891 82.856 537.363 83.984 536.307 84.8C535.267 85.6 533.715 86 531.651 86H523.971ZM526.347 84.104H531.603C532.883 84.104 533.843 83.872 534.483 83.408C535.139 82.928 535.467 82.2 535.467 81.224C535.467 80.248 535.139 79.536 534.483 79.088C533.843 78.64 532.883 78.416 531.603 78.416H526.347V84.104ZM526.347 76.592H531.027C532.195 76.592 533.083 76.36 533.691 75.896C534.315 75.432 534.627 74.752 534.627 73.856C534.627 72.944 534.315 72.256 533.691 71.792C533.083 71.328 532.195 71.096 531.027 71.096H526.347V76.592ZM554.093 86V73.28H556.397V86H554.093ZM547.253 77.6C548.869 77.616 550.093 77.984 550.925 78.704C551.773 79.424 552.197 80.44 552.197 81.752C552.197 83.128 551.733 84.192 550.805 84.944C549.893 85.68 548.581 86.04 546.869 86.024L541.517 86V73.28H543.821V77.576L547.253 77.6ZM546.701 84.272C547.725 84.288 548.509 84.08 549.053 83.648C549.597 83.216 549.869 82.576 549.869 81.728C549.869 80.896 549.597 80.288 549.053 79.904C548.525 79.52 547.741 79.32 546.701 79.304L543.821 79.256V84.248L546.701 84.272Z" fill="#0E2944"/>
<path d="M782.882 86V69.2H784.85L792.386 81.896H791.33L798.77 69.2H800.738L800.762 86H798.458L798.434 72.824H798.986L792.362 83.96H791.258L784.586 72.824H785.186V86H782.882ZM818.183 86V73.28H820.487V86H818.183ZM811.343 77.6C812.959 77.616 814.183 77.984 815.015 78.704C815.863 79.424 816.287 80.44 816.287 81.752C816.287 83.128 815.823 84.192 814.895 84.944C813.983 85.68 812.671 86.04 810.959 86.024L805.607 86V73.28H807.911V77.576L811.343 77.6ZM810.791 84.272C811.815 84.288 812.599 84.08 813.143 83.648C813.687 83.216 813.959 82.576 813.959 81.728C813.959 80.896 813.687 80.288 813.143 79.904C812.615 79.52 811.831 79.32 810.791 79.304L807.911 79.256V84.248L810.791 84.272Z" fill="#0E2944"/>
<rect x="61" y="57.2041" width="15.6863" height="3" rx="1.5" transform="rotate(-50.5 61 57.2041)" fill="white"/>
<rect x="333" y="57.2041" width="15.6863" height="3" rx="1.5" transform="rotate(-50.5 333 57.2041)" fill="white"/>
<rect x="582" y="57.2041" width="15.6863" height="3" rx="1.5" transform="rotate(-50.5 582 57.2041)" fill="white"/>
<rect x="234.188" y="59.1343" width="15.6863" height="3" rx="1.5" transform="rotate(-135.5 234.188 59.1343)" fill="white"/>
<rect x="506.188" y="59.1343" width="15.6863" height="3" rx="1.5" transform="rotate(-135.5 506.188 59.1343)" fill="white"/>
<rect x="755.188" y="59.1343" width="15.6863" height="3" rx="1.5" transform="rotate(-135.5 755.188 59.1343)" fill="white"/>
<rect x="97.7485" y="18.479" width="15.6863" height="3" rx="1.5" transform="rotate(-35.5 97.7485 18.479)" fill="white"/>
<rect x="369.749" y="18.479" width="15.6863" height="3" rx="1.5" transform="rotate(-35.5 369.749 18.479)" fill="white"/>
<rect x="618.749" y="18.479" width="15.6863" height="3" rx="1.5" transform="rotate(-35.5 618.749 18.479)" fill="white"/>
<rect x="195.617" y="23.6943" width="15.6863" height="3" rx="1.5" transform="rotate(-143 195.617 23.6943)" fill="white"/>
<rect x="467.617" y="23.6943" width="15.6863" height="3" rx="1.5" transform="rotate(-143 467.617 23.6943)" fill="white"/>
<rect x="716.617" y="23.6943" width="15.6863" height="3" rx="1.5" transform="rotate(-143 716.617 23.6943)" fill="white"/>
<rect x="78.5386" y="36.4902" width="15.6863" height="3" rx="1.5" transform="rotate(-45 78.5386 36.4902)" fill="white"/>
<rect x="350.539" y="36.4902" width="15.6863" height="3" rx="1.5" transform="rotate(-45 350.539 36.4902)" fill="white"/>
<rect x="599.539" y="36.4902" width="15.6863" height="3" rx="1.5" transform="rotate(-45 599.539 36.4902)" fill="white"/>
<rect x="216.025" y="40.9268" width="15.6863" height="3" rx="1.5" transform="rotate(-138.5 216.025 40.9268)" fill="white"/>
<rect x="488.025" y="40.9268" width="15.6863" height="3" rx="1.5" transform="rotate(-138.5 488.025 40.9268)" fill="white"/>
<rect x="737.025" y="40.9268" width="15.6863" height="3" rx="1.5" transform="rotate(-138.5 737.025 40.9268)" fill="white"/>
<rect x="118" y="5.10693" width="15.6863" height="3" rx="1.5" transform="rotate(-19 118 5.10693)" fill="white"/>
<rect x="390" y="5.10693" width="15.6863" height="3" rx="1.5" transform="rotate(-19 390 5.10693)" fill="white"/>
<rect x="639" y="5.10693" width="15.6863" height="3" rx="1.5" transform="rotate(-19 639 5.10693)" fill="white"/>
<rect x="164.074" y="0.446289" width="15.6863" height="3" rx="1.5" transform="rotate(24 164.074 0.446289)" fill="white"/>
<rect x="436.074" y="0.446289" width="15.6863" height="3" rx="1.5" transform="rotate(24 436.074 0.446289)" fill="white"/>
<rect x="685.074" y="0.446289" width="15.6863" height="3" rx="1.5" transform="rotate(24 685.074 0.446289)" fill="white"/>
</svg>
