<svg width="187" height="134" viewBox="0 0 187 134" fill="none" xmlns="http://www.w3.org/2000/svg">
<rect width="17.868" height="3.2893" rx="1.64465" transform="matrix(0.558413 0.829563 0.703759 -0.710439 0 2.33691)" fill="white"/>
<rect width="16.9565" height="3.4613" rx="1.73065" transform="matrix(0.717671 0.696382 0.547845 -0.83658 37 42.8955)" fill="white"/>
<rect width="16.9565" height="3.4613" rx="1.73065" transform="matrix(0.7645 0.644623 0.488154 -0.872758 85 80.0205)" fill="white"/>
<rect width="16.9565" height="3.4613" rx="1.73065" transform="matrix(0.83256 0.553936 0.386217 -0.922408 108 97.1924)" fill="white"/>
<rect width="21.7355" height="3.4613" rx="1.73065" transform="matrix(0.893861 0.448343 0.270925 -0.962601 132 112.332)" fill="white"/>
<rect width="17.5367" height="3.35388" rx="1.67694" transform="matrix(0.632497 0.774563 0.632497 -0.774563 19 24.5977)" fill="white"/>
<rect width="17.5367" height="3.35388" rx="1.67694" transform="matrix(0.740037 0.672566 0.511062 -0.859544 60 61.8828)" fill="white"/>
<path d="M186.562 127.827C187.019 127.516 187.137 126.894 186.827 126.438L181.766 118.995C181.456 118.539 180.834 118.42 180.377 118.731C179.92 119.041 179.802 119.663 180.112 120.12L184.611 126.735L177.995 131.234C177.539 131.544 177.42 132.166 177.731 132.623C178.041 133.08 178.663 133.198 179.12 132.888L186.562 127.827ZM164.813 123.982L185.813 127.982L186.187 126.018L165.187 122.018L164.813 123.982Z" fill="white"/>
</svg>
