<svg width="697" height="60" viewBox="0 0 697 60" fill="none" xmlns="http://www.w3.org/2000/svg">
<rect y="57.2041" width="15.6863" height="3" rx="1.5" transform="rotate(-50.5 0 57.2041)" fill="white"/>
<rect x="272" y="57.2041" width="15.6863" height="3" rx="1.5" transform="rotate(-50.5 272 57.2041)" fill="white"/>
<rect x="521" y="57.2041" width="15.6863" height="3" rx="1.5" transform="rotate(-50.5 521 57.2041)" fill="white"/>
<rect x="173.188" y="59.1343" width="15.6863" height="3" rx="1.5" transform="rotate(-135.5 173.188 59.1343)" fill="white"/>
<rect x="445.188" y="59.1343" width="15.6863" height="3" rx="1.5" transform="rotate(-135.5 445.188 59.1343)" fill="white"/>
<rect x="694.188" y="59.1343" width="15.6863" height="3" rx="1.5" transform="rotate(-135.5 694.188 59.1343)" fill="white"/>
<rect x="36.7485" y="18.479" width="15.6863" height="3" rx="1.5" transform="rotate(-35.5 36.7485 18.479)" fill="white"/>
<rect x="308.749" y="18.479" width="15.6863" height="3" rx="1.5" transform="rotate(-35.5 308.749 18.479)" fill="white"/>
<rect x="557.749" y="18.479" width="15.6863" height="3" rx="1.5" transform="rotate(-35.5 557.749 18.479)" fill="white"/>
<rect x="134.617" y="23.6943" width="15.6863" height="3" rx="1.5" transform="rotate(-143 134.617 23.6943)" fill="white"/>
<rect x="406.617" y="23.6943" width="15.6863" height="3" rx="1.5" transform="rotate(-143 406.617 23.6943)" fill="white"/>
<rect x="655.617" y="23.6943" width="15.6863" height="3" rx="1.5" transform="rotate(-143 655.617 23.6943)" fill="white"/>
<rect x="17.5386" y="36.4902" width="15.6863" height="3" rx="1.5" transform="rotate(-45 17.5386 36.4902)" fill="white"/>
<rect x="289.539" y="36.4902" width="15.6863" height="3" rx="1.5" transform="rotate(-45 289.539 36.4902)" fill="white"/>
<rect x="538.539" y="36.4902" width="15.6863" height="3" rx="1.5" transform="rotate(-45 538.539 36.4902)" fill="white"/>
<rect x="155.025" y="40.9268" width="15.6863" height="3" rx="1.5" transform="rotate(-138.5 155.025 40.9268)" fill="white"/>
<rect x="427.025" y="40.9268" width="15.6863" height="3" rx="1.5" transform="rotate(-138.5 427.025 40.9268)" fill="white"/>
<rect x="676.025" y="40.9268" width="15.6863" height="3" rx="1.5" transform="rotate(-138.5 676.025 40.9268)" fill="white"/>
<rect x="57" y="5.10693" width="15.6863" height="3" rx="1.5" transform="rotate(-19 57 5.10693)" fill="white"/>
<rect x="329" y="5.10693" width="15.6863" height="3" rx="1.5" transform="rotate(-19 329 5.10693)" fill="white"/>
<rect x="578" y="5.10693" width="15.6863" height="3" rx="1.5" transform="rotate(-19 578 5.10693)" fill="white"/>
<rect x="103.074" y="0.446289" width="15.6863" height="3" rx="1.5" transform="rotate(24 103.074 0.446289)" fill="white"/>
<rect x="375.074" y="0.446289" width="15.6863" height="3" rx="1.5" transform="rotate(24 375.074 0.446289)" fill="white"/>
<rect x="624.074" y="0.446289" width="15.6863" height="3" rx="1.5" transform="rotate(24 624.074 0.446289)" fill="white"/>
</svg>
