<svg width="35" height="35" viewBox="0 0 35 35" fill="none" xmlns="http://www.w3.org/2000/svg">
<path d="M29.1341 25.932C25.4001 21.4187 20.1501 16.4312 16.4182 12.989C16.1842 12.7508 16.0682 12.5148 16.0682 12.1585C16.0682 11.446 16.5342 10.9718 17.2341 10.9718C17.4682 10.9718 17.8182 11.0898 18.0501 11.21H18.166C23.416 16.0795 27.616 20.2343 30.6501 23.7968C30.8841 23.3225 31.116 22.846 31.3501 22.3718C31.3501 22.3718 31.3501 22.2538 31.466 22.1335C31.582 21.7773 31.7001 21.303 31.816 20.9468C31.816 20.8288 31.932 20.7085 31.932 20.5905C32.0479 20.2343 32.0479 19.878 32.166 19.5218C32.166 19.4038 32.166 19.2835 32.282 19.0475C32.166 18.5688 32.166 17.9743 32.166 17.5001C32.166 8.23759 22.6001 3.36808 13.5001 3.25009C5.21602 3.13208 0.666016 0.874329 0.666016 0.874329C0.666016 0.874329 1.83194 12.9868 4.28194 19.7556C7.08412 27.4751 12.216 30.5633 19.3342 30.5633C19.8001 30.5633 20.2683 30.5634 20.7342 30.4453H20.8501C21.2001 30.4453 21.666 30.3273 22.016 30.2071H22.132C22.9479 29.9689 23.7661 29.7328 24.582 29.3766C25.282 29.0204 25.982 28.6641 26.682 28.1899C29.0161 30.9219 30.532 33.0594 30.532 34.0079H34.032C33.916 32.2244 31.9342 29.1383 29.1342 25.9321L29.1341 25.932Z" fill="#06314D"/>
</svg>
