<svg width="43" height="48" viewBox="0 0 43 48" fill="none" xmlns="http://www.w3.org/2000/svg">
<g clip-path="url(#clip0_90_491)">
<path d="M21.9997 7.00944C21.447 7.00944 20.9998 6.56112 20.9998 6.00816V1.00128C20.9998 0.44736 21.447 0 21.9997 0C22.5524 0 22.9996 0.44736 22.9996 1.00128V6.00768C22.9996 6.56112 22.5524 7.00944 21.9997 7.00944Z" fill="#06314D"/>
<path d="M30.9992 10.0128C30.7898 10.0128 30.5798 9.94704 30.4 9.81216C29.9581 9.48096 29.8684 8.85264 30.1997 8.41104L33.2005 4.40592C33.5307 3.9624 34.1592 3.8736 34.5992 4.20528C35.0422 4.53648 35.1318 5.16432 34.7996 5.6064L31.7998 9.612C31.6032 9.87504 31.3036 10.0128 30.9992 10.0128Z" fill="#06314D"/>
<path d="M12.0012 10.0128C11.6963 10.0128 11.3967 9.87504 11.2002 9.612L8.20036 5.60641C7.86864 5.16433 7.95876 4.53648 8.40073 4.20528C8.84078 3.87264 9.46827 3.96192 9.7995 4.40592L12.7993 8.41105C13.1315 8.85265 13.0419 9.48096 12.5994 9.81216C12.4202 9.94753 12.2102 10.0128 12.0012 10.0128Z" fill="#06314D"/>
<path d="M4.99881 17.0222C4.84877 17.0222 4.69682 16.9886 4.55301 16.9166L0.55323 14.9141C0.0590102 14.6664 -0.141362 14.0649 0.105987 13.5701C0.354296 13.0752 0.953975 12.8769 1.44772 13.1217L5.44749 15.1248C5.94171 15.372 6.14208 15.9739 5.89473 16.4683C5.71929 16.8197 5.36648 17.0222 4.99881 17.0222Z" fill="#06314D"/>
<path d="M38.0002 17.0222C37.633 17.0222 37.2812 16.8197 37.1053 16.4688C36.8579 15.9744 37.0583 15.3725 37.5525 15.1253L41.5532 13.1222C42.047 12.8769 42.6471 13.0752 42.8945 13.5705C43.1418 14.0659 42.9415 14.6669 42.4468 14.9145L38.447 16.9171C38.3032 16.9886 38.1512 17.0222 38.0002 17.0222Z" fill="#06314D"/>
<path d="M16.5004 19.5254C17.0527 19.5254 17.5004 19.0772 17.5004 18.5242C17.5004 17.9712 17.0527 17.5229 16.5004 17.5229C15.9482 17.5229 15.5005 17.9712 15.5005 18.5242C15.5005 19.0772 15.9482 19.5254 16.5004 19.5254Z" fill="#06314D"/>
<path d="M21.5002 24.5319C22.0524 24.5319 22.5001 24.0836 22.5001 23.5306C22.5001 22.9776 22.0524 22.5293 21.5002 22.5293C20.9479 22.5293 20.5002 22.9776 20.5002 23.5306C20.5002 24.0836 20.9479 24.5319 21.5002 24.5319Z" fill="#06314D"/>
<path d="M35.9999 25.0325C35.9999 24.0312 35.9999 24.481 35.9999 24.0312C35.9999 16.2893 29.7318 10.0128 21.9997 10.0128C14.2691 10.0128 8 16.2893 8 24.0312C8 27.301 9.12745 30.301 10.9998 32.6837V48H29.0003V43.0565C32.3136 43.0565 34.9999 40.3671 34.9999 37.0488V34.0445H37.9998C38.5525 34.0445 38.9997 33.5967 38.9997 33.0432C38.9992 32.7826 35.9999 25.0325 35.9999 25.0325ZM23.9996 24.0312C23.9996 25.1371 23.1046 26.0338 21.9997 26.0338H15.9996C14.8956 26.0338 13.9997 25.1371 13.9997 24.0312V18.0235C13.9997 16.9171 14.8956 16.021 15.9996 16.021H21.9997C23.1046 16.021 23.9996 16.9171 23.9996 18.0235V24.0312ZM29.0003 30.0399H24.9995C24.9995 26.4135 27.6231 29.6098 27.9692 23.737C27.3906 23.3861 26.9994 22.7549 26.9994 22.0282C26.9994 20.9227 27.8953 20.0256 29.0003 20.0256C30.1047 20.0256 31.0002 20.9227 31.0002 22.0282C31.0002 22.7549 30.6095 23.3856 30.0309 23.737C30.377 29.6098 33 26.4135 33 30.0399H29.0003Z" fill="#06314D"/>
<path d="M18.9999 22.0286C19.5522 22.0286 19.9999 21.5803 19.9999 21.0273C19.9999 20.4743 19.5522 20.0261 18.9999 20.0261C18.4477 20.0261 18 20.4743 18 21.0273C18 21.5803 18.4477 22.0286 18.9999 22.0286Z" fill="#06314D"/>
</g>
<defs>
<clipPath id="clip0_90_491">
<rect width="43" height="48" fill="white"/>
</clipPath>
</defs>
</svg>
