<svg width="47" height="47" viewBox="0 0 47 47" fill="none" xmlns="http://www.w3.org/2000/svg">
<path d="M10.2813 27.8946H10.2814L17.625 27.8964C17.6251 27.8964 17.6251 27.8964 17.6252 27.8964C17.8196 27.8964 18.0542 27.9609 18.2673 28.0646C18.489 28.1724 18.7354 28.3456 18.9232 28.6051C19.1167 28.8723 19.2355 29.2149 19.2116 29.6237C19.1886 30.018 19.0351 30.4434 18.742 30.9015C18.6186 31.1408 18.5023 31.5956 18.4082 32.2102C18.3151 32.8183 18.252 33.5211 18.2097 34.1934C18.1674 34.8641 18.1462 35.4968 18.1356 35.9622C18.1303 36.1947 18.1277 36.385 18.1264 36.5169C18.1257 36.5828 18.1254 36.6341 18.1252 36.6687L18.1251 36.7079L18.125 36.7176L18.125 36.72V36.7205V36.7206C18.125 37.8135 18.9784 38.666 20.0723 38.666C21.1681 38.666 22.0215 37.8135 22.0215 36.7187C22.0215 32.9609 23.8314 30.505 25.6276 29.0035C26.5225 28.2554 27.4155 27.742 28.0847 27.4152C28.4065 27.2581 28.6779 27.1434 28.875 27.0661L28.875 15.0382C27.8283 14.6401 27.0209 14.1525 26.2944 13.7138C26.0241 13.5505 25.7649 13.394 25.5088 13.2514C24.4919 12.6853 23.3999 12.25 21.541 12.25L14.1973 12.25C13.1022 12.25 12.25 13.1036 12.25 14.1973C12.25 14.6661 12.4048 15.0527 12.64 15.3657L13.2412 16.166H12.2402C11.1451 16.166 10.2929 17.0196 10.2929 18.1133C10.2929 18.5888 10.4517 19.0661 10.7713 19.4667L11.1911 19.993L10.566 20.2428C9.77226 20.56 9.31438 21.2607 9.31438 22.0312C9.31438 22.5067 9.47313 22.984 9.79275 23.3846L10.2396 23.9447L9.5597 24.1709C8.88199 24.3963 8.33403 25.0856 8.33401 25.9473L10.2813 27.8946ZM10.2813 27.8946C9.18763 27.8946 8.33403 27.0424 8.33401 25.9473L10.2813 27.8946Z" fill="white" stroke="#67AAF9"/>
<path d="M34.3125 13.2285H38.709V28.875H34.3144H34.3144C32.9253 28.875 31.8769 27.8266 31.8769 26.4375V26.4374L31.875 15.666C31.875 15.666 31.875 15.666 31.875 15.666C31.8751 14.3651 32.9344 13.2285 34.3125 13.2285Z" fill="white" stroke="#67AAF9"/>
</svg>
