<svg width="47" height="47" viewBox="0 0 47 47" fill="none" xmlns="http://www.w3.org/2000/svg">
<path d="M36.7187 19.1054H36.7186L29.375 19.1036C29.3749 19.1036 29.3749 19.1036 29.3748 19.1036C29.1804 19.1036 28.9458 19.0391 28.7327 18.9354C28.511 18.8276 28.2646 18.6544 28.0768 18.3949C27.8833 18.1277 27.7645 17.7851 27.7884 17.3763C27.8114 16.982 27.9649 16.5566 28.258 16.0985C28.3814 15.8592 28.4977 15.4044 28.5918 14.7898C28.6849 14.1817 28.748 13.4789 28.7903 12.8066C28.8326 12.1359 28.8538 11.5032 28.8644 11.0378C28.8697 10.8053 28.8723 10.615 28.8736 10.4831C28.8743 10.4172 28.8746 10.3659 28.8748 10.3313L28.8749 10.2921L28.875 10.2824L28.875 10.28V10.2795V10.2794C28.875 9.18645 28.0216 8.33398 26.9277 8.33398C25.8319 8.33398 24.9785 9.18649 24.9785 10.2813C24.9785 14.0391 23.1686 16.495 21.3724 17.9965C20.4775 18.7446 19.5845 19.258 18.9153 19.5848C18.5935 19.7419 18.3221 19.8566 18.125 19.9339V31.9618C19.1717 32.3599 19.9791 32.8475 20.7056 33.2862C20.9759 33.4495 21.2351 33.606 21.4912 33.7486C22.5081 34.3147 23.6001 34.75 25.459 34.75H32.8027C33.8978 34.75 34.75 33.8964 34.75 32.8027C34.75 32.3339 34.5952 31.9473 34.36 31.6343L33.7588 30.834H34.7598C35.8549 30.834 36.7071 29.9804 36.7071 28.8867C36.7071 28.4112 36.5483 27.9339 36.2287 27.5333L35.8089 27.007L36.434 26.7572C37.2277 26.44 37.6856 25.7393 37.6856 24.9688C37.6856 24.4933 37.5269 24.016 37.2073 23.6154L36.7604 23.0553L37.4403 22.8291C38.118 22.6037 38.666 21.9144 38.666 21.0527L36.7187 19.1054ZM36.7187 19.1054C37.8124 19.1054 38.666 19.9576 38.666 21.0527L36.7187 19.1054Z" fill="white" stroke="#67AAF9"/>
<path d="M12.7304 33.7715H8.33398V18.125H12.7286H12.7286C14.1177 18.125 15.1661 19.1734 15.1661 20.5625V20.5626L15.1679 31.334C15.1679 31.334 15.1679 31.334 15.1679 31.334C15.1679 32.6349 14.1086 33.7715 12.7304 33.7715Z" fill="white" stroke="#67AAF9"/>
</svg>
