<svg width="28" height="23" viewBox="0 0 28 23" fill="none" xmlns="http://www.w3.org/2000/svg">
<path d="M25.3749 6.62445H13.126C11.6379 6.62445 10.501 7.76139 10.501 9.24945V16.25C10.501 17.6495 11.6379 18.875 13.126 18.875H21.8754L25.3749 22.3744V18.875C26.8629 18.875 27.9999 17.6495 27.9999 16.25V9.24945C27.9999 7.76303 26.8629 6.62445 25.3749 6.62445Z" fill="#67AAF9"/>
<path d="M14.8749 0.5H2.62598C1.13792 0.5 0.000976562 1.63694 0.000976562 3.125V10.1256C0.000976562 11.525 1.13792 12.7506 2.62598 12.7506V16.25L6.12542 12.7506H8.75042V9.25112C8.75042 6.80168 10.6749 4.87556 13.126 4.87556H17.5015V3.125C17.4999 1.63694 16.363 0.5 14.8749 0.5H14.8749Z" fill="#67AAF9"/>
</svg>
