<svg width="25" height="32" viewBox="0 0 25 32" fill="none" xmlns="http://www.w3.org/2000/svg">
<path fill-rule="evenodd" clip-rule="evenodd" d="M0.166992 6.25001C0.166992 2.84425 2.9279 0.0833435 6.33366 0.0833435H18.667C22.0727 0.0833435 24.8337 2.84425 24.8337 6.25001V27.9209C24.8337 30.4288 21.9989 31.8876 19.9582 30.4299L12.5003 25.1029L5.04248 30.4299C3.00171 31.8876 0.166992 30.4288 0.166992 27.9209V6.25001ZM6.33366 3.16668C4.63078 3.16668 3.25032 4.54713 3.25032 6.25001V27.9209L10.7082 22.5939C11.7802 21.8281 13.2204 21.8281 14.2925 22.5939L21.7503 27.9209V6.25001C21.7503 4.54713 20.3699 3.16668 18.667 3.16668H6.33366Z" fill="#E84142"/>
</svg>
